<svg width="100" height="100" viewBox="0 0 100 100" fill="none" xmlns="http://www.w3.org/2000/svg">
<circle cx="50" cy="50" r="50" fill="#B0907A"/>
<path d="M69.334 42.9333V63C69.334 66.3137 66.6477 69 63.334 69H38.0007C34.6869 69 32.0007 66.3137 32.0007 63V42.9333C32.0007 42.602 32.2693 42.3333 32.6007 42.3333H68.734C69.0654 42.3333 69.334 42.602 69.334 42.9333Z" stroke="#E1D4C9" stroke-width="2" stroke-linecap="round" stroke-linejoin="round"/>
<path d="M56.0007 36.9999C56.0007 34.3333 57.9054 31.6666 61.7149 31.6666C63.064 31.6666 64.8378 31.6666 66.3344 31.6666C67.9912 31.6666 69.334 30.3234 69.334 28.6666V22.3333" stroke="#E1D4C9" stroke-width="2" stroke-linecap="round" stroke-linejoin="round"/>
<path d="M45.3327 37V30.6667C45.3327 29.0098 46.6758 27.6667 48.3327 27.6667H56.666C57.7706 27.6667 58.666 26.7712 58.666 25.6667V21" stroke="#E1D4C9" stroke-width="2" stroke-linecap="round" stroke-linejoin="round"/>
<path d="M66.666 42.3333H73.3327C77.0146 42.3333 79.9993 45.318 79.9993 48.9999C79.9993 52.6818 77.0146 55.6666 73.3327 55.6666H69.3327" stroke="#E1D4C9" stroke-width="2" stroke-linecap="round" stroke-linejoin="round"/>
</svg>
